<svg width="300" height="80" viewBox="0 0 300 80" xmlns="http://www.w3.org/2000/svg">
    <defs>
        <linearGradient id="hexGrad" x1="0%" y1="0%" x2="100%" y2="100%">
            <stop offset="0%" style="stop-color:#6366f1"/>
            <stop offset="100%" style="stop-color:#8b5cf6"/>
        </linearGradient>
        <linearGradient id="textGrad" x1="0%" y1="0%" x2="100%" y2="100%">
            <stop offset="0%" style="stop-color:#3b82f6"/>
            <stop offset="100%" style="stop-color:#06b6d4"/>
        </linearGradient>
    </defs>
    <!-- Hexagon layers -->
    <polygon points="42,12 62,2 82,12 82,35 62,45 42,35" fill="url(#hexGrad)" opacity="0.2"/>
    <polygon points="35,22 55,12 75,22 75,45 55,55 35,45" fill="url(#hexGrad)" opacity="0.4"/>
    <polygon points="40,32 58,23 76,32 76,52 58,62 40,52" fill="url(#hexGrad)"/>
    <!-- Dollar sign -->
    <path d="M58 38 L58 52 M52 42 Q58 38 64 42 Q58 46 52 50 Q58 54 64 50" stroke="white" stroke-width="2.5" stroke-linecap="round" fill="none"/>
    <!-- Text -->
    <text x="95" y="50" font-family="Space Grotesk, sans-serif" font-size="36" font-weight="700" fill="#1e1b4b">Tax</text>
    <text x="155" y="50" font-family="Space Grotesk, sans-serif" font-size="36" font-weight="700" fill="url(#textGrad)">Sky</text>
    <text x="225" y="50" font-family="Space Grotesk, sans-serif" font-size="20" font-weight="600" fill="#7c3aed">AI</text>
</svg>
